<?xml version="1.0" encoding="UTF-8"?>
<svg id="_レイヤー_2" data-name="レイヤー 2" xmlns="http://www.w3.org/2000/svg" xmlns:xlink="http://www.w3.org/1999/xlink" viewBox="0 0 302.17 292.65">
  <defs>
    <style>
      .cls-1 {
        fill: url(#_名称未設定グラデーション_17-2);
      }

      .cls-2 {
        fill: url(#_名称未設定グラデーション_17-3);
      }

      .cls-3 {
        fill: #231815;
        font-family: Ayuthaya, Ayuthaya;
        font-size: 36px;
      }

      .cls-4 {
        fill: url(#_名称未設定グラデーション_17);
      }

      .cls-5 {
        fill: url(#_名称未設定グラデーション_14);
      }
    </style>
    <linearGradient id="_名称未設定グラデーション_14" data-name="名称未設定グラデーション 14" x1="59.66" y1="27.73" x2="226.62" y2="194.7" gradientUnits="userSpaceOnUse">
      <stop offset="0" stop-color="#006934"/>
      <stop offset=".54" stop-color="#8ac121"/>
      <stop offset="1" stop-color="#dae000"/>
    </linearGradient>
    <linearGradient id="_名称未設定グラデーション_17" data-name="名称未設定グラデーション 17" x1="178.94" y1="165.09" x2="309.71" y2="165.09" gradientUnits="userSpaceOnUse">
      <stop offset="0" stop-color="#dae000"/>
      <stop offset=".54" stop-color="#8ac121"/>
      <stop offset="1" stop-color="#006934"/>
    </linearGradient>
    <linearGradient id="_名称未設定グラデーション_17-2" data-name="名称未設定グラデーション 17" x1="178.94" y1="209.43" x2="309.71" y2="209.43" xlink:href="#_名称未設定グラデーション_17"/>
    <linearGradient id="_名称未設定グラデーション_17-3" data-name="名称未設定グラデーション 17" x1="178.94" y1="209.8" x2="309.71" y2="209.8" xlink:href="#_名称未設定グラデーション_17"/>
  </defs>
  <g id="_レイヤー_1-2" data-name="レイヤー 1">
    <g>
      <path class="cls-5" d="M150.34,51.62c0,4.26-3.9,7.71-8.71,7.71s-8.71-3.45-8.71-7.71c0-3.5,2.64-6.46,6.25-7.4V15.11c-3.61-.94-6.25-3.9-6.25-7.4,0-4.26,3.9-7.71,8.71-7.71s8.71,3.45,8.71,7.71c0,3.5-2.64,6.46-6.25,7.4v29.11c3.61,.94,6.25,3.9,6.25,7.4Zm13.87-5.23l8.52-28.12c3.76-.08,7.18-2.33,8.2-5.71,1.25-4.11-1.51-8.34-6.16-9.44s-9.43,1.34-10.67,5.45c-1.02,3.38,.66,6.84,3.87,8.58l-8.52,28.12c-3.76,.08-7.18,2.33-8.2,5.71-1.25,4.11,1.51,8.34,6.16,9.44s9.43-1.34,10.67-5.45c1.02-3.38-.66-6.84-3.87-8.58Zm18.8,6.7l16.45-25.21c3.66,.78,7.61-.61,9.59-3.64,2.41-3.69,.98-8.4-3.19-10.53s-9.5-.87-11.9,2.82c-1.98,3.03-1.36,6.76,1.23,9.17l-16.45,25.21c-3.66-.78-7.61,.61-9.59,3.64-2.41,3.69-.98,8.4,3.19,10.53s9.5,.87,11.9-2.82c1.98-3.03,1.36-6.76-1.23-9.17Zm16.2,10.78l23.26-20.59c3.31,1.6,7.53,1.16,10.33-1.32,3.4-3.01,3.4-7.89,0-10.9s-8.92-3.01-12.32,0c-2.8,2.48-3.29,6.22-1.49,9.14l-23.26,20.59c-3.31-1.6-7.53-1.16-10.33,1.32-3.4,3.01-3.4,7.89,0,10.9s8.92,3.01,12.32,0c2.8-2.48,3.29-6.22,1.49-9.14Zm12.49,14.12l28.49-14.56c2.73,2.3,6.94,2.84,10.36,1.09,4.17-2.13,5.6-6.85,3.19-10.53-2.41-3.69-7.74-4.95-11.9-2.82-3.43,1.75-5,5.25-4.11,8.49l-28.49,14.56c-2.73-2.3-6.94-2.84-10.36-1.09-4.17,2.13-5.6,6.85-3.19,10.53s7.74,4.95,11.9,2.82c3.43-1.75,5-5.25,4.11-8.49Zm7.94,16.5l31.78-7.53c1.96,2.84,5.87,4.33,9.69,3.43,4.65-1.1,7.41-5.33,6.16-9.44s-6.02-6.55-10.67-5.45c-3.82,.91-6.36,3.93-6.46,7.26l-31.78,7.53c-1.96-2.84-5.87-4.33-9.69-3.43-4.65,1.1-7.41,5.33-6.16,9.44s6.02,6.55,10.67,5.45c3.82-.91,6.36-3.93,6.46-7.26Zm2.84,17.76h32.9c1.06,3.2,4.4,5.53,8.36,5.53,4.81,0,8.71-3.45,8.71-7.71s-3.9-7.71-8.71-7.71c-3.96,0-7.3,2.33-8.36,5.53h-32.9c-1.06-3.2-4.4-5.53-8.36-5.53-4.81,0-8.71,3.45-8.71,7.71s3.9,7.71,8.71,7.71c3.96,0,7.3-2.33,8.36-5.53Zm-38.16,59.83l16.45,25.21c-2.6,2.41-3.21,6.14-1.23,9.17,2.41,3.69,7.74,4.95,11.9,2.82s5.6-6.85,3.19-10.53c-1.98-3.03-5.93-4.42-9.59-3.64l-16.45-25.21c2.6-2.41,3.21-6.14,1.23-9.17-2.41-3.69-7.74-4.95-11.9-2.82s-5.6,6.85-3.19,10.53c1.98,3.03,5.93,4.42,9.59,3.64Zm-18.65,7.02l8.52,28.12c-3.21,1.74-4.9,5.19-3.87,8.58,1.25,4.11,6.02,6.55,10.67,5.45s7.41-5.33,6.16-9.44c-1.02-3.38-4.44-5.63-8.2-5.71l-8.52-28.12c3.21-1.74,4.9-5.19,3.87-8.58-1.25-4.11-6.02-6.55-10.67-5.45s-7.41,5.33-6.16,9.44c1.02,3.38,4.44,5.63,8.2,5.71Zm-20.07,2.51v29.11c-3.61,.94-6.25,3.9-6.25,7.4,0,4.26,3.9,7.71,8.71,7.71,4.81,0,8.71-3.45,8.71-7.71,0-3.5-2.64-6.46-6.25-7.4v-29.11c3.61-.94,6.25-3.9,6.25-7.4,0-4.26-3.9-7.71-8.71-7.71-4.81,0-8.71,3.45-8.71,7.71,0,3.5,2.64,6.46,6.25,7.4Zm-20.12-2.17l-8.52,28.12c-3.76,.08-7.18,2.33-8.2,5.71-1.25,4.11,1.51,8.34,6.16,9.44,4.65,1.1,9.43-1.34,10.67-5.45,1.02-3.38-.66-6.84-3.87-8.58l8.52-28.12c3.76-.08,7.18-2.33,8.2-5.71,1.25-4.11-1.51-8.34-6.16-9.44-4.65-1.1-9.43,1.34-10.67,5.45-1.02,3.38,.66,6.84,3.87,8.58Zm-18.8-6.7l-16.45,25.21c-3.66-.78-7.61,.61-9.59,3.64-2.41,3.69-.98,8.4,3.19,10.53,4.17,2.13,9.5,.87,11.9-2.82,1.98-3.03,1.36-6.76-1.23-9.17l16.45-25.21c3.66,.78,7.61-.61,9.59-3.64,2.41-3.69,.98-8.4-3.19-10.53-4.17-2.13-9.5-.87-11.9,2.82-1.98,3.03-1.36,6.76,1.23,9.17Zm-16.2-10.78l-23.26,20.59c-3.31-1.6-7.53-1.16-10.33,1.32-3.4,3.01-3.4,7.89,0,10.9s8.92,3.01,12.32,0c2.8-2.48,3.29-6.22,1.49-9.14l23.26-20.59c3.31,1.6,7.53,1.16,10.33-1.32,3.4-3.01,3.4-7.89,0-10.9-3.4-3.01-8.92-3.01-12.32,0-2.8,2.48-3.29,6.22-1.49,9.14Zm-12.49-14.12l-28.49,14.56c-2.73-2.3-6.94-2.84-10.36-1.09-4.17,2.13-5.6,6.85-3.19,10.53,2.41,3.69,7.74,4.95,11.9,2.82,3.43-1.75,5-5.25,4.11-8.49l28.49-14.56c2.73,2.3,6.94,2.84,10.36,1.09,4.17-2.13,5.6-6.85,3.19-10.53-2.41-3.69-7.74-4.95-11.9-2.82-3.43,1.75-5,5.25-4.11,8.49Zm-7.94-16.5l-31.78,7.53c-1.96-2.84-5.87-4.33-9.69-3.43-4.65,1.1-7.41,5.33-6.16,9.44,1.25,4.11,6.02,6.55,10.67,5.45,3.82-.91,6.36-3.93,6.46-7.26l31.78-7.53c1.96,2.84,5.87,4.33,9.69,3.43,4.65-1.1,7.41-5.33,6.16-9.44-1.25-4.11-6.02-6.55-10.67-5.45-3.82,.91-6.36,3.93-6.46,7.26Zm-2.84-17.76H34.31c-1.06-3.2-4.4-5.53-8.36-5.53-4.81,0-8.71,3.45-8.71,7.71,0,4.26,3.9,7.71,8.71,7.71,3.96,0,7.3-2.33,8.36-5.53h32.9c1.06,3.2,4.4,5.53,8.36,5.53,4.81,0,8.71-3.45,8.71-7.71,0-4.26-3.9-7.71-8.71-7.71-3.96,0-7.3,2.33-8.36,5.53Zm2.45-17.8l-31.78-7.53c-.09-3.33-2.63-6.35-6.46-7.26-4.65-1.1-9.43,1.34-10.67,5.45-1.25,4.11,1.51,8.34,6.16,9.44,3.82,.91,7.73-.58,9.69-3.43l31.78,7.53c.09,3.33,2.63,6.35,6.46,7.26,4.65,1.1,9.43-1.34,10.67-5.45,1.25-4.11-1.51-8.34-6.16-9.44-3.82-.91-7.73,.58-9.69,3.43Zm7.57-16.64l-28.49-14.56c.89-3.24-.69-6.74-4.11-8.49-4.17-2.13-9.5-.87-11.9,2.82-2.41,3.69-.98,8.4,3.19,10.53,3.43,1.75,7.64,1.21,10.36-1.09l28.49,14.56c-.89,3.24,.69,6.74,4.11,8.49,4.17,2.13,9.5,.87,11.9-2.82,2.41-3.69,.98-8.4-3.19-10.53-3.43-1.75-7.64-1.21-10.36,1.09Zm12.18-14.33l-23.26-20.59c1.8-2.93,1.31-6.67-1.49-9.14-3.4-3.01-8.92-3.01-12.32,0-3.4,3.01-3.4,7.89,0,10.9,2.8,2.48,7.02,2.91,10.33,1.32l23.26,20.59c-1.8,2.93-1.31,6.67,1.49,9.14,3.4,3.01,8.92,3.01,12.32,0,3.4-3.01,3.4-7.89,0-10.9-2.8-2.48-7.02-2.91-10.33-1.32Zm15.96-11.06l-16.45-25.21c2.6-2.41,3.21-6.14,1.23-9.17-2.41-3.69-7.74-4.95-11.9-2.82-4.17,2.13-5.6,6.85-3.19,10.53,1.98,3.03,5.93,4.42,9.59,3.64l16.45,25.21c-2.6,2.41-3.21,6.14-1.23,9.17,2.41,3.69,7.74,4.95,11.9,2.82,4.17-2.13,5.6-6.85,3.19-10.53-1.98-3.03-5.93-4.42-9.59-3.64Zm18.65-7.02l-8.52-28.12c3.21-1.74,4.9-5.19,3.87-8.58-1.25-4.11-6.02-6.55-10.67-5.45-4.65,1.1-7.41,5.33-6.16,9.44,1.02,3.38,4.44,5.63,8.2,5.71l8.52,28.12c-3.21,1.74-4.9,5.19-3.87,8.58,1.25,4.11,6.02,6.55,10.67,5.45,4.65-1.1,7.41-5.33,6.16-9.44-1.02-3.38-4.44-5.63-8.2-5.71Z"/>
      <g>
        <path class="cls-4" d="M195.43,125.91c3.23,10.8,7.77,21.29,13.54,31.08,2.89,4.9,6.09,9.62,9.67,14.05,.86,1.14,1.79,2.22,2.73,3.29,.94,1.07,1.84,2.19,2.85,3.2l2.96,3.1,3.12,2.94c4.25,3.83,8.73,7.47,13.6,10.53,4.85,3.1,9.99,5.8,15.38,7.99,10.76,4.38,22.48,6.81,34.36,6.89,.24,0,.43,.19,.43,.43,0,.22-.17,.4-.38,.42-11.92,1.27-24.21,.19-35.99-3.12-5.89-1.66-11.64-3.89-17.19-6.6-5.57-2.69-10.8-6.02-15.85-9.63l-3.73-2.79-3.58-2.98c-1.22-.97-2.32-2.07-3.48-3.11-1.15-1.05-2.3-2.11-3.37-3.23-4.44-4.38-8.52-9.13-12.28-14.12-7.53-9.98-13.81-20.91-18.76-32.49l-.02-.04c-1.85-4.32,.16-9.33,4.48-11.18,4.32-1.85,9.33,.16,11.18,4.48,.13,.3,.24,.6,.33,.91Z"/>
        <g>
          <path class="cls-1" d="M291.67,200.78c2.38,3.42,5.88,5.99,9.54,7.93-3.38,2.41-6.33,5.55-8.3,9.22l-2.12,.15c1.97-3.56,4.43-6.71,7.57-9.17-3.46-2.02-6.46-4.8-8.85-7.98l2.15-.16Z"/>
          <path class="cls-2" d="M286.57,201.15c2.38,3.42,5.88,5.99,9.54,7.93-3.38,2.41-6.33,5.55-8.3,9.22l-2.12,.15c1.97-3.56,4.43-6.71,7.57-9.17-3.46-2.02-6.45-4.8-8.85-7.98l2.15-.16Z"/>
        </g>
      </g>
      <text class="cls-3" transform="translate(0 274.93)"><tspan x="0" y="0">Quorum Hackers</tspan></text>
    </g>
  </g>
</svg>